<?xml version="1.0" encoding="utf-8"?>
<!-- Generator: Adobe Illustrator 27.6.1, SVG Export Plug-In . SVG Version: 6.00 Build 0)  -->
<svg version="1.1" id="exportSvg" xmlns="http://www.w3.org/2000/svg" xmlns:xlink="http://www.w3.org/1999/xlink" x="0px" y="0px"
	 viewBox="0 0 600 400" style="enable-background:new 0 0 600 400;" xml:space="preserve">
<style type="text/css">
	.st0{clip-path:url(#SVGID_00000069396821732191755750000011995517578384627108_);}
	.st1{clip-path:url(#SVGID_00000170250096581390682350000003487995023461725599_);}
	.st2{font-family:'Arial-BoldMT';}
	.st3{font-size:22px;}
	.st4{fill:#181818;}
	.st5{font-family:'ArialMT';}
	.st6{font-size:14px;}
	.st7{clip-path:url(#SVGID_00000122707777274949539540000006758367067383563675_);}
	.st8{fill:#424B50;}
	.st9{fill:#747474;}
	.st10{font-size:12px;}
	.st11{fill:#A2A2A2;}
	.st12{fill:none;stroke:#181818;stroke-linecap:square;}
	.st13{fill:#FF0000;}
	.st14{fill:#8200FF;}
	.st15{clip-path:url(#SVGID_00000005263253533914932320000014936623408206205322_);}
	.st16{fill:#888888;}
	.st17{font-size:11px;}
</style>
<g>
	<g>
		<defs>
			<rect id="SVGID_1_" width="600" height="400"/>
		</defs>
		<clipPath id="SVGID_00000089574733686885160890000001304602865943646393_">
			<use xlink:href="#SVGID_1_"  style="overflow:visible;"/>
		</clipPath>
		<g id="__svelte-dw-svg" style="clip-path:url(#SVGID_00000089574733686885160890000001304602865943646393_);">
			<g>
				<defs>
					<rect id="SVGID_00000044892483767547953070000003614483099547537809_" width="600" height="400"/>
				</defs>
				<clipPath id="SVGID_00000171683196263090932180000012890816604133655728_">
					<use xlink:href="#SVGID_00000044892483767547953070000003614483099547537809_"  style="overflow:visible;"/>
				</clipPath>
				
					<g id="outer-container-svg_dw-chart-styles-svg_datawrapper-y9kKe-cadg66-svg_svelte-crzbxb-svg_static-svg" style="clip-path:url(#SVGID_00000171683196263090932180000012890816604133655728_);">
					<g id="header-svg">
						<text transform="matrix(1 0 0 1 0 22)" class="st2 st3">Engulfed in smoke</text>
						<text transform="matrix(1 0 0 1 0 49)" class="st4 st5 st6">From August to November 2020, California&apos;s August Complex fire tore through Mendocino&apos;s</text>
						<text transform="matrix(1 0 0 1 0 66)" class="st4 st5 st6">forests, sending millions of hazardous particles into the air.</text>
					</g>
					<g id="chart-svg">
						<g>
							<defs>
								<rect id="SVGID_00000168833935804586934090000007137960698575175821_" y="79" width="600" height="288"/>
							</defs>
							<clipPath id="SVGID_00000030484486118796630740000013383630183791686309_">
								<use xlink:href="#SVGID_00000168833935804586934090000007137960698575175821_"  style="overflow:visible;"/>
							</clipPath>
							
								<g id="svg-main-svg" transform="translate(0, 79)" style="clip-path:url(#SVGID_00000030484486118796630740000013383630183791686309_);">
								<g id="group-svg" transform="translate(26.47656, 27)">
									<g id="x-grid-svg">
									</g>
									<g id="y-grid-svg">
									</g>
									<path id="AQI" class="st8" d="M9.7,226h2.6h2.6h2.6H20h2.6h2.6h2.6h2.6h2.6h2.6H38h2.6h2.6h2.6h2.6h2.6h2.6H56h2.6h2.6h2.6
										h2.6h2.6h2.6h2.6h2.6h2.6h2.6h2.6H87h2.6h2.6h2.6h2.6h2.6h2.6h2.6h2.6h2.6h2.6h2.6h2.6h2.6h2.6h2.6h2.6h2.6h2.6h2.6h2.6
										h2.6h2.6h2.6h2.6h2.6h2.6h2.6h2.6h2.6h2.6h2.6h2.6h2.6h2.6h2.6h2.6h2.6h2.6h2.6h2.6h2.6h2.6h2.6h2.6h2.6h2.6h2.6h2.6h2.6
										h2.6h2.6h2.6h2.6h2.6h2.6h2.6h2.6h2.6h2.6h2.6h2.6h2.6h2.6h2.6h2.6h2.6h2.6h2.6h2.6h2.6h2.6h2.6h2.6h2.6h2.6h2.6h2.6h2.6
										h2.6h2.6h2.6h2.6h2.6h2.6h2.6h2.6h2.6h2.6h2.6h2.6h2.6h2.6h2.6h2.6h2.6h2.6h2.6h2.6h2.6h2.6h2.6h2.6h2.6h2.6h2.6h2.6h2.6
										h2.6h2.6h2.6h2.6h2.6h2.6h2.6h2.6h2.6h2.6h2.6h2.6h2.6h2.6h2.6h2.6h2.6h2.6h2.6h2.6h2.6h2.6h2.6h2.6h2.6h2.6h2.6h2.6h2.6
										h2.6h2.6h2.6h2.6h2.6h2.6h2.6h2.6h2.6h2.6h2.6h2.7h2.6h2.6h2.6h2.6h2.6h2.6h2.6h2.6h2.6h2.6h2.6h2.6h2.6h2.6h2.6h2.6h2.6
										h2.6h2.6h2.6h2.6h2.6h2.6h2.6h2.6h2.6h2.6h2.6h2.6h2.6h2.6h2.6h2.6h2.6h2.6h2.6v-29.2l-2.6-3.5l-2.6,1l-2.6-1l-2.6,2.5
										l-2.6,0.5l-2.6,10.9l-2.6-10.9l-2.6,7.9l-2.6-4l-2.6-2l-2.6,5.5l-2.6,4l-2.6,3.5l-2.6,2l-2.6,1l-2.6-8.9l-2.6,3l-2.6,2.5
										l-2.6-6.9l-2.6,5l-2.6-5l-2.6-3.5l-2.6,15.9l-2.6-2l-2.6-9.9l-2.6,2l-2.6,3l-2.6-4l-2.6-4l-2.6,5h-2.6l-2.6-3.5l-2.6,5.5
										l-2.6,3l-2.6-6.4l-2.6-2l-2.7,7.4l-2.6-5l-2.6,0.5l-2.6,1l-2.6,2.5l-2.6-2l-2.6-0.5l-2.6-1.5l-2.6,4.5l-2.6-5.9l-2.6-18.8
										l-2.6,16.9l-2.6,9.4l-2.6-3h-2.6l-2.6,3.5l-2.6-14.4l-2.6-15.4l-2.6,4.5l-2.6-15.9l-2.6-3.5l-2.6,24.3l-2.6-16.9l-2.6-28.2
										l-2.6-10.9l-2.6,18.3l-2.6-11.9l-2.6,45.1l-2.6-8.9l-2.6,32.2l-2.6-3l-2.6,2l-2.6,0.5l-2.6-3.5l-2.6-16.4l-2.6-40.1
										l-2.6,43.6l-2.6,15.9l-2.6,1.5l-2.6-2l-2.6-27.8l-2.6-31.7l-2.6,1.5l-2.6-9.9l-2.6-0.5L349.8,58l-2.6-58l-2.6,81.8
										l-2.6,112.5l-2.6-18.8l-2.6,10.9l-2.6,12.9l-2.6-19.3l-2.6,2.5l-2.6-5.9l-2.6-24.3l-2.6,7.4h-2.6l-2.6-21.8l-2.6,39.2
										l-2.6,27.8l-2.6-45.6l-2.6-18.8l-2.6,33.2l-2.6,26.3l-2.6,16.9l-2.6-2l-2.6-5l-2.6,1l-2.6,3l-2.6-8.9l-2.6,6.9l-2.6-2
										l-2.6-0.5l-2.6,1l-2.6,3.5l-2.6-3l-2.6-7.9l-2.6,0.5l-2.6,9.4l-2.6,4.5l-2.6,0.5l-2.6-2.5l-2.6,1.5l-2.6-0.5l-2.6,0.5
										l-2.6-2l-2.6-6.4l-2.6,2.5l-2.6,1.5h-2.6h-2.6l-2.6-2l-2.6,4l-2.6,3H221l-2.6-2.5l-2.6,0.5l-2.6-2l-2.6-1.5l-2.6,1.5h-2.6
										l-2.6-5l-2.6-5.5l-2.6,6.4l-2.6,4l-2.6-2l-2.6,5h-2.6l-2.6-2.5l-2.6-1l-2.6-1l-2.6-2.5l-2.6-1.5l-2.6-1l-2.6,4l-2.6,1
										l-2.6,4l-2.6-2.5l-2.6-2l-2.6,2l-2.6-2.5h-2.6l-2.6,5.9l-2.6-3l-2.6-2l-2.6,7.9l-2.6-5.9l-2.6-3l-2.6-3.5l-2.6,4l-2.6,2
										l-2.6-1.5l-2.6,4.5l-2.6-2.5l-2.6-0.5l-2.6,1.5l-2.6,4l-2.6-2.5l-2.6,3.5l-2.6-6.9l-2.6-1l-2.6,1l-2.6-2l-2.6,2l-2.6-3
										l-2.6,2.5l-2.6,4l-2.6-1l-2.6-1l-2.6-4.5l-2.6,5l-2.6-1l-2.6,1l-2.6-4l-2.6,1l-2.6-0.5l-2.6-0.5l-2.6,4.5l-2.6-2.5
										l-2.6-1.5l-2.6-0.5l-2.6,5.5l-2.6-5.9l-2.6-0.5l-2.6,4l-2.6-3h-2.6l-2.6-2.5l-2.6-2l-2.6,0.5l-2.6-0.5l-2.6,2.5l-2.6,2
										l-2.6-8.4l-2.6,5.5l-2.6,3l-2.6-2V226z"/>
									<g id="x-grid-svg_00000089563221071774677010000017573293233773486726_">
										<g id="x-tick-labels-svg_date-axis-svg_grid-x-svg_datawrapper-y9kKe-63wp0p-svg" transform="translate(0, 231)">
											<text transform="matrix(1 0 0 1 -1.6734 12)" class="st9 st5 st10">May</text>
											<text transform="matrix(1 0 0 1 -3.6861 27)" class="st9 st5 st10">2020</text>
											<text transform="matrix(1 0 0 1 79.8774 12)" class="st9 st5 st10">Jun</text>
											<text transform="matrix(1 0 0 1 159.194 12)" class="st9 st5 st10">Jul</text>
											<text transform="matrix(1 0 0 1 236.0778 12)" class="st9 st5 st10">Aug</text>
											<text transform="matrix(1 0 0 1 315.9675 12)" class="st9 st5 st10">Sep</text>
											<text transform="matrix(1 0 0 1 394.6219 12)" class="st9 st5 st10">Oct</text>
											<text transform="matrix(1 0 0 1 473.2831 12)" class="st9 st5 st10">Nov</text>
											<text transform="matrix(1 0 0 1 550.5958 12)" class="st9 st5 st10">Dec</text>
										</g>
									</g>
									<g id="y-grid-svg_00000021813356631698456760000003471803696423296437_">
										<g id="y-tick-labels-svg_number-axis-svg_grid-y-svg_datawrapper-y9kKe-yhj5g2-svg" transform="translate(-5, 0)">
											<text transform="matrix(1 0 0 1 -6.6738 230)" class="st11 st5 st10">0</text>
											<text transform="matrix(1 0 0 1 -20.0215 180.4386)" class="st11 st5 st10">100</text>
											<text transform="matrix(1 0 0 1 -20.0215 130.8772)" class="st11 st5 st10">200</text>
											<text transform="matrix(1 0 0 1 -20.0215 81.3158)" class="st11 st5 st10">300</text>
											<text transform="matrix(1 0 0 1 -20.0215 31.7544)" class="st11 st5 st10">400</text>
										</g>
										<g id="y-base-lines-svg_grid-y-svg_datawrapper-y9kKe-1io9s9d-svg">
											<line class="st12" x1="570.9" y1="226" x2="0" y2="226"/>
										</g>
									</g>
								</g>
							</g>
						</g>
						<text transform="matrix(1 0 0 1 2.751 117.9147)" class="st4 st5 st10">AQI</text>
						<line class="st13" x1="26.5" y1="257.2" x2="597.4" y2="257.2"/>
						<line class="st14" x1="26.5" y1="182.8" x2="597.4" y2="182.8"/>
						<text transform="matrix(1 0 0 1 523.9677 176.3086)" class="st4 st5 st6">Hazardous</text>
						<text transform="matrix(1 0 0 1 526.8394 251)" class="st4 st5 st6">Unhealthy</text>
						<g>
							<defs>
								<rect id="SVGID_00000088099034893283937260000010280155863382764223_" y="79" width="600" height="288"/>
							</defs>
							<clipPath id="SVGID_00000048495414311582794180000015569565474667619460_">
								<use xlink:href="#SVGID_00000088099034893283937260000010280155863382764223_"  style="overflow:visible;"/>
							</clipPath>
							
								<g id="tooltip-layer-svg" transform="translate(0, 79)" style="clip-path:url(#SVGID_00000048495414311582794180000015569565474667619460_);">
								<g id="group-svg_00000008844658381904102420000011722763986508413568_" transform="translate(26.47656, 27)">
								</g>
							</g>
						</g>
					</g>
					<g id="footer-svg">
						<text transform="matrix(1 0 0 1 0 398)" class="st16 st5 st17">Source</text>
						<text transform="matrix(1 0 0 1 34.853 398)" class="st16 st5 st17">:</text>
						<text transform="matrix(1 0 0 1 40.6436 398)" class="st16 st5 st17">Environmental Protection Agency</text>
						<text transform="matrix(1 0 0 1 276.4844 398)" class="st16 st5 st17">r</text>
					</g>
				</g>
			</g>
		</g>
	</g>
</g>
<image style="overflow:visible;opacity:0.25;" width="1024" height="576" xlink:href="../../../Downloads/favpng_clip-art-image-vector-graphics-free-content.png"  transform="matrix(0.4697 0 0 0.4607 106.7012 67.3163)">
</image>
<image style="overflow:visible;opacity:0.25;" width="1024" height="576" xlink:href="../../../Downloads/favpng_clip-art-image-vector-graphics-free-content.png"  transform="matrix(0.3941 0 0 0.3385 219.8731 129.1265)">
</image>
<image style="overflow:visible;opacity:0.25;" width="1024" height="576" xlink:href="../../../Downloads/favpng_clip-art-image-vector-graphics-free-content.png"  transform="matrix(0.2273 0 0 0.1957 358.3698 213)">
</image>
<image style="overflow:visible;opacity:0.25;" width="1024" height="576" xlink:href="../../../Downloads/favpng_clip-art-image-vector-graphics-free-content.png"  transform="matrix(0.1586 0 0 0.1246 419.4796 260.8862)">
</image>
<text transform="matrix(1 0 0 1 812 177)" class="st10" style="font-family:'MyriadPro-Regular';">Lorem ipsum</text>
<text transform="matrix(1 0 0 1 70 -115)" class="st10" style="font-family:'MyriadPro-Regular';">Lorem ipsum</text>
<line class="st14" x1="26.5" y1="182.8" x2="25.5" y2="185.8"/>
</svg>
