<?xml version="1.0" encoding="utf-8"?>
<!-- Generator: Adobe Illustrator 27.6.1, SVG Export Plug-In . SVG Version: 6.00 Build 0)  -->
<svg version="1.1" xmlns="http://www.w3.org/2000/svg" xmlns:xlink="http://www.w3.org/1999/xlink" x="0px" y="0px"
	 viewBox="0 0 1280 1246" style="enable-background:new 0 0 1280 1246;" xml:space="preserve">
<style type="text/css">
	.st0{clip-path:url(#SVGID_00000140724680540850352970000002321240256319006346_);fill:#FFFFFF;}
	.st1{clip-path:url(#SVGID_00000140724680540850352970000002321240256319006346_);}
	.st2{fill:#3584BF;stroke:#FFFFFF;stroke-width:2;}
	.st3{fill:#A4CCE4;stroke:#FFFFFF;stroke-width:2;}
	.st4{fill:#4592C7;stroke:#FFFFFF;stroke-width:2;}
	.st5{fill:#0F579F;stroke:#FFFFFF;stroke-width:2;}
	.st6{fill:#74B2D7;stroke:#FFFFFF;stroke-width:2;}
	.st7{fill:#A8CEE5;stroke:#FFFFFF;stroke-width:2;}
	.st8{fill:#08306B;stroke:#FFFFFF;stroke-width:2;}
	.st9{fill:#72B1D7;stroke:#FFFFFF;stroke-width:2;}
	.st10{fill:#81BADB;stroke:#FFFFFF;stroke-width:2;}
	.st11{fill:#73B2D7;stroke:#FFFFFF;stroke-width:2;}
	.st12{fill:#AED1E7;stroke:#FFFFFF;stroke-width:2;}
	.st13{fill:#9BC8E1;stroke:#FFFFFF;stroke-width:2;}
	.st14{fill:#8FC1DE;stroke:#FFFFFF;stroke-width:2;}
	.st15{fill:#67AAD3;stroke:#FFFFFF;stroke-width:2;}
	.st16{fill:#4693C7;stroke:#FFFFFF;stroke-width:2;}
	.st17{fill:#A6CDE4;stroke:#FFFFFF;stroke-width:2;}
	.st18{fill:#5FA5D1;stroke:#FFFFFF;stroke-width:2;}
	.st19{fill:#86BDDC;stroke:#FFFFFF;stroke-width:2;}
	.st20{fill:#CEE1F2;stroke:#FFFFFF;stroke-width:2;}
	.st21{fill:#D4E5F4;stroke:#FFFFFF;stroke-width:2;}
	.st22{fill:#B5D4E9;stroke:#FFFFFF;stroke-width:2;}
	.st23{fill:#6DAED5;stroke:#FFFFFF;stroke-width:2;}
	.st24{fill:#BED8EC;stroke:#FFFFFF;stroke-width:2;}
	.st25{fill:#CADEF0;stroke:#FFFFFF;stroke-width:2;}
	.st26{fill:#92C3DF;stroke:#FFFFFF;stroke-width:2;}
	.st27{fill:#C6DCEF;stroke:#FFFFFF;stroke-width:2;}
	.st28{fill:#BDD8EC;stroke:#FFFFFF;stroke-width:2;}
	.st29{fill:#C2DAED;stroke:#FFFFFF;stroke-width:2;}
	.st30{fill:#AACFE6;stroke:#FFFFFF;stroke-width:2;}
	.st31{fill:#E9F2FA;stroke:#FFFFFF;stroke-width:2;}
	.st32{fill:#DCEAF6;stroke:#FFFFFF;stroke-width:2;}
	.st33{fill:#A2CBE3;stroke:#FFFFFF;stroke-width:2;}
	.st34{fill:#D0E2F2;stroke:#FFFFFF;stroke-width:2;}
	.st35{fill:#D2E3F3;stroke:#FFFFFF;stroke-width:2;}
	.st36{fill:#E2EDF8;stroke:#FFFFFF;stroke-width:2;}
	.st37{fill:#F2F8FD;stroke:#FFFFFF;stroke-width:2;}
	.st38{fill:#BAD6EB;stroke:#FFFFFF;stroke-width:2;}
	.st39{fill:#D7E7F5;stroke:#FFFFFF;stroke-width:2;}
	.st40{fill:#DCE9F6;stroke:#FFFFFF;stroke-width:2;}
	.st41{fill:#D8E7F5;stroke:#FFFFFF;stroke-width:2;}
	.st42{fill:#D5E5F4;stroke:#FFFFFF;stroke-width:2;}
	.st43{fill:#F5FAFE;stroke:#FFFFFF;stroke-width:2;}
	.st44{fill:#D1E3F3;stroke:#FFFFFF;stroke-width:2;}
	.st45{fill:#D9E8F5;stroke:#FFFFFF;stroke-width:2;}
	.st46{fill:#BCD7EC;stroke:#FFFFFF;stroke-width:2;}
	.st47{fill:#CCDFF1;stroke:#FFFFFF;stroke-width:2;}
	.st48{fill:#DDEAF7;stroke:#FFFFFF;stroke-width:2;}
	.st49{fill:#E0ECF8;stroke:#FFFFFF;stroke-width:2;}
	.st50{fill:#DBE9F6;stroke:#FFFFFF;stroke-width:2;}
	.st51{fill:#E5EFF9;stroke:#FFFFFF;stroke-width:2;}
	.st52{fill:#C7DDEF;stroke:#FFFFFF;stroke-width:2;}
	.st53{fill:#CFE2F2;stroke:#FFFFFF;stroke-width:2;}
	.st54{fill:#F1F7FD;stroke:#FFFFFF;stroke-width:2;}
	.st55{fill:#E1EDF8;stroke:#FFFFFF;stroke-width:2;}
	.st56{fill:#C9DEF0;stroke:#FFFFFF;stroke-width:2;}
	.st57{fill:#DFEBF7;stroke:#FFFFFF;stroke-width:2;}
	.st58{fill:#EBF3FB;stroke:#FFFFFF;stroke-width:2;}
	.st59{fill:#E3EEF9;stroke:#FFFFFF;stroke-width:2;}
	.st60{fill:#E8F2FA;stroke:#FFFFFF;stroke-width:2;}
	.st61{fill:#DFECF7;stroke:#FFFFFF;stroke-width:2;}
	.st62{fill:#E6F0FA;stroke:#FFFFFF;stroke-width:2;}
	.st63{fill:#E8F1FA;stroke:#FFFFFF;stroke-width:2;}
	.st64{fill:#ECF4FB;stroke:#FFFFFF;stroke-width:2;}
	.st65{fill:#E6F0F9;stroke:#FFFFFF;stroke-width:2;}
	.st66{fill:#E0ECF7;stroke:#FFFFFF;stroke-width:2;}
	.st67{fill:#EDF5FC;stroke:#FFFFFF;stroke-width:2;}
	.st68{fill:#E7F1FA;stroke:#FFFFFF;stroke-width:2;}
	.st69{fill:#ECF4FC;stroke:#FFFFFF;stroke-width:2;}
	.st70{fill:#F4F9FE;stroke:#FFFFFF;stroke-width:2;}
	.st71{fill:#EDF4FC;stroke:#FFFFFF;stroke-width:2;}
	.st72{fill:#EFF6FC;stroke:#FFFFFF;stroke-width:2;}
	.st73{fill:#E4EFF9;stroke:#FFFFFF;stroke-width:2;}
	.st74{fill:#F7FBFF;stroke:#FFFFFF;stroke-width:2;}
	.st75{fill:none;stroke:#FFFFFF;stroke-width:4;}
	.st76{fill:#FFFFFF;}
	.st77{font-family:'Helvetica-Light';}
	.st78{font-size:27.9013px;}
	.st79{fill:#888888;}
	.st80{font-size:24px;}
	.st81{font-family:'Helvetica';}
	.st82{font-size:48.9082px;}
	.st83{enable-background:new    ;}
	.st84{fill:#181818;}
	.st85{font-size:31.1234px;}
</style>
<g id="Layer_1">
	<g>
		<defs>
			<path id="SVGID_1_" d="M638.9,222.2c-9.8,1.6-14.9,4.9-15.9,10.3c-1.7,8.8-0.2,16.6,3.3,17.4c1.6,0.4,1.8,0.9,1.9,5
				c0.1,4.2-0.1,4.5-1.3,3.8c-0.8-0.4-1.7-0.7-2-0.7c-1.1,0-2.6,6.6-2.6,11.2c0,5.6,1.2,8.7,3.8,9.7c1.9,0.9,2.1,1.2,2.1,5.1
				c0,4.1-0.1,4.2-2.1,3.7c-1.9-0.4-2.1-0.1-2.9,3.1c-1.9,7.8-0.5,16.3,2.9,17.4c1.8,0.5,1.9,1.1,2.1,5c0.1,3.8-0.1,4.4-1.1,4
				c-2.4-0.9-2.7-0.8-3.6,2.3c-1.2,4-1.3,11.1-0.2,14.3c0.5,1.3,1.8,2.9,2.9,3.5c1.7,0.9,1.9,1.6,2.1,5.3l0.2,4.3l-1.9-0.8
				c-1.1-0.4-2.1-0.6-2.2-0.5c-0.9,1.3-1.9,7.5-1.9,11c0,5.5,1.6,9.4,4,10c1.6,0.5,1.8,0.9,1.9,5.1c0.1,4.2-0.1,4.6-1.3,3.9
				c-0.8-0.4-1.7-0.7-2-0.7c-1.1,0-2.6,6.6-2.6,11.2c0,5.6,1.2,8.7,3.8,9.7c1.9,0.9,2.1,1.2,2.1,5.2c0,3.5-0.2,4.1-1.2,3.8
				c-2.3-0.9-2.6-0.8-3.6,2.3c-2.2,7.1-0.9,16.9,2.6,18.1c1.8,0.5,1.9,1.1,2.1,5c0.1,3.8-0.1,4.4-1.1,4c-2.4-0.9-2.7-0.8-3.6,2.3
				c-2.3,7.4-0.7,16.9,3,17.8c1.6,0.5,1.9,0.9,1.8,3.7c0,1.8,0.2,4.3,0.5,5.4c0.5,2,0.5,2.1-0.9,1.4c-0.9-0.5-2-0.9-2.6-0.9
				c-1.7,0-3.1,7.1-2.6,12.9l0.4,5l-3.9-5.4c-4.5-6.5-6.1-10.2-7.8-17.4c-3-13.2-3.6-21.7-4.4-67.8c-0.8-41.4-1.5-55.8-3.6-72.5
				c-8.3-65.9-35.8-95.8-86.3-93.9c-15.1,0.5-27,3.4-41.5,10.1c-42.2,19.3-85,63.3-136,139.7c-24.4,36.6-61.5,98.7-84.7,141.9
				c-38.6,71.8-70,178.1-88.4,299.9c-7.4,49-12.1,94.2-15.3,150.3c-1.2,22.2-1.2,92.2,0,110.1c2.9,39.3,7.1,67.2,13.3,85.6
				c7.1,21.5,15.7,28.4,28.9,22.9c6-2.5,11.2-6.1,24.1-17.1c30.6-26,38.8-30.7,62.8-36c34.7-7.7,72.2-21.9,128.9-49.1
				c32-15.3,88.3-44.9,104.3-54.9c14.6-9.1,28.1-20.5,36.3-30.6c7.3-9.1,12.6-17.5,24.7-38.6c6.1-10.7,14.6-25,18.8-31.8
				c23-36.7,31.6-65,37.1-121.7c0.7-7.1,1-29.8,1-78.7c0.1-65.8,0.2-69.1,1.8-81.4c0.9-7.1-2.6,87.9-1.8,81.4
				c4.7-35.6,10.2-182,6.3-203.3c-0.5-2.9-0.9-5.2-0.7-5.2c0.2,0,0.9,0.4,1.6,0.9c1.1,0.7,1.9,0.6,3.9-0.4c3.3-1.7,6-1.6,8.9,0.5
				c1.4,0.9,2.6,1.7,2.6,1.7c0.1,0.1-0.4,3.3-1,7.1c-0.7,4.3-1.3,15.3-1.6,28.3c-0.6,28.7,0.2,39.8,7.2,92.6
				c1.2,8.8,1.3,18.4,1.4,78.3c0,48.7,0.3,71.1,1,78.3c5.5,56.7,14.1,84.9,37.1,121.7c4.3,6.8,12.7,21.1,18.8,31.8
				c12.1,21.1,17.4,29.5,24.7,38.6c8.2,10.2,21.6,21.5,36.3,30.6c16,10.1,72.3,39.7,104.3,54.9c56.7,27.1,94.2,41.4,128.9,49.1
				c23.9,5.3,32.2,10.1,62.8,36c12.9,11,18.1,14.6,24.1,17.1c13.7,5.6,22.8-2.2,30-26.2c5.6-18.7,9.5-45.3,12.2-82.4
				c1.2-17.8,1.2-87.8,0-110.1c-3.3-56-7.9-101.3-15.3-150.3c-18.4-121.9-49.8-228.2-88.4-299.9c-15.5-28.9-45.9-81-64.4-110.5
				c-60.7-96.6-108.8-149.3-156.3-171.1c-14.6-6.7-26.4-9.5-41.5-10.1c-50.5-1.9-78,28.1-86.3,93.9c-2.1,16.7-2.8,31.1-3.6,72.5
				c-0.9,46-1.4,54.6-4.4,67.8c-1.2,5.3-4.4,13.6-5.2,13.6c-0.2,0-0.8-1.3-1.2-2.9c-1.3-4.7-2.6-6-4.9-5l-1.9,0.9l0.2-5.1
				c0.2-4.8,0.3-5.1,2.5-6c4-1.7,5.7-11.9,2.9-18c-1.2-2.9-1.6-3.2-3.2-2.6c-1.7,0.6-1.8,0.5-2.1-3.5c-0.2-4-0.2-4.2,2.2-5.3
				c1.9-0.9,2.6-2,3.5-5c1.4-5,1.2-10.1-0.4-13.3c-1.1-2.2-1.7-2.6-3.2-2.2c-1.8,0.5-1.9,0.2-2.1-3.6c-0.2-3.9-0.1-4.2,2-5.3
				c4.2-2.2,6-12.2,3.3-18c-1.2-2.4-1.7-2.9-3.2-2.5c-1.6,0.4-1.8,0.2-2-3.6c-0.3-3.9-0.2-4.1,2.1-5c1.9-0.8,2.6-1.8,3.4-4.7
				c1.5-5,1.3-10.2-0.4-13.4c-1.8-3.5-1.6-3.3-3.3-2.4c-1.5,0.8-1.6,0.5-1.9-3.5c-0.2-4.2-0.2-4.3,2.2-5.3c1.9-0.8,2.6-1.7,3.4-4.7
				c2.2-8,0.4-16.4-3.5-15.7c-1.7,0.4-1.9,0.1-2.1-3.7c-0.2-3.9-0.2-4.1,2.2-5.2c1.9-0.9,2.6-2,3.5-5c1.4-5,1.2-10.1-0.4-13.3
				c-1.2-2.2-1.7-2.6-3.3-2.2c-1.7,0.5-1.9,0.3-1.9-2.6c0-1.7-0.2-3.5-0.4-4.1c-0.2-0.6,0.6-1.5,2.2-2.2c1.8-0.9,2.8-2,3.6-4.3
				c1.5-4.5,1.4-10.4-0.2-13.7c-1.2-2.4-1.7-2.9-3.2-2.5c-1.6,0.4-1.8,0.2-2-3.6c-0.3-3.9-0.2-4.1,2.1-5c1.9-0.8,2.6-1.8,3.4-4.7
				c2.9-10.3-0.4-17.9-9.2-21.2c-3.3-1.2-6.4-1.7-13.3-1.9C645.3,221.9,640.3,222,638.9,222.2z"/>
		</defs>
		<clipPath id="SVGID_00000137812516445391284390000012649128306645331135_">
			<use xlink:href="#SVGID_1_"  style="overflow:visible;"/>
		</clipPath>
		
			<rect id="backgorund" x="25.8" y="219.7" style="clip-path:url(#SVGID_00000137812516445391284390000012649128306645331135_);fill:#FFFFFF;" width="1368" height="984.8"/>
		<g id="viz" transform="translate(10,10)" style="clip-path:url(#SVGID_00000137812516445391284390000012649128306645331135_);">
			<g id="cells">
				<path id="_x39_2113" class="st2" d="M667.8,849L610,796.6l-72.3,5.2L474,855.4l-8.5,61.1l71.9,90.1l74.2-1.1l46.5-35.1l25.3-69
					L667.8,849z"/>
				<path id="_x39_2231" class="st3" d="M301.2,226.1l-6.7,87.8l45.3,43.4l99.1-16.5L467,226.1H301.2z"/>
				<path id="_x39_2243" class="st4" d="M247.1,842.5l104.8,24.7l64.4-47.7l14-87.7l-10.8-19.3l-114.9-50.1L246,690l-27.2,67.1
					l16.9,72.8L247.1,842.5z"/>
				<path id="_x39_2227" class="st5" d="M682.7,329.5l-43.1-103.5H467l-28.2,114.7l54.6,87.6l91.2,13.3l78-46.5L682.7,329.5z"/>
				<path id="_x39_2102" class="st6" d="M647.7,1178l24.2-99l-60.3-73.6l-74.2,1.1l-49.2,65.7l27.6,105.7H647.7z"/>
				<path id="_x39_1910" class="st7" d="M1108.5,886l46.7,89.6l51.4,8.9l49.2-21.8l18.3-33.3l-39.2-91.5l-14.2-7.6l-68.9,3.2
					L1108.5,886z"/>
				<path id="_x39_2281" class="st8" d="M1016.4,626.7l-26.3-116l-118.2-40.4L805.8,496l-50.1,77.5l11.7,82.5l76.5,60.6l97-2.8
					l35.1-24.2L1016.4,626.7z"/>
				<path id="_x39_1945" class="st9" d="M32.8,503.7l109,30.7l70.5-53.3l5.4-50.6l-52.8-63.6l-132.1,7.4V503.7z"/>
				<path id="_x39_2105" class="st10" d="M1108.5,886l-86.4,2.8l-40.4,39.5l-3.8,74.5l101.9,62.5l60.5-44.1l14.9-45.5L1108.5,886z"
					/>
				<path id="_x39_1950" class="st11" d="M1050.5,711l-39.6,11.5l-31.7,29.2l-2.8,96.8l45.7,40.2l86.4-2.8l43.3-52.6l-28.4-97.7
					L1050.5,711z"/>
				<path id="_x39_2020" class="st12" d="M1016.4,626.7l28.9,10.6l94.5-32.2l6.4-48.8l-45.4-60.6l-81.2-7.9l-29.5,22.8L1016.4,626.7
					z"/>
				<path id="_x39_1911" class="st13" d="M310.4,423.9l21.7,59.9l136.1-5.3l25.1-50l-54.6-87.6l-99.1,16.5L310.4,423.9z"/>
				<path id="_x39_2173" class="st14" d="M332.1,483.7l-19,27.7l21.7,88.4l104.4,27.6l40.9-25.3l15.6-72.8l-27.5-50.9L332.1,483.7z"
					/>
				<path id="_x39_2233" class="st15" d="M979.2,751.7l-38.3-38l-97,2.8l-46.8,56.2l-2,39.5l61.5,77l80.6-4.6l39.1-36L979.2,751.7z"
					/>
				<path id="_x39_2114" class="st16" d="M141.8,534.4L131.3,615l27.6,43.8L246,690l58.6-27.7l30.3-62.4l-21.7-88.4l-100.8-30.4
					L141.8,534.4z"/>
				<path id="_x39_2021" class="st17" d="M1248.4,560.2l118.4-18.9v-91.7l-84.5-41.8l-39.2,3.9l-18.5,17.5l2.4,109.3L1248.4,560.2z"
					/>
				<path id="_x39_2251" class="st18" d="M1131.3,391.4l51-66.4l-31-99h-150.2l-16.5,111.2l49.3,51.9L1131.3,391.4z"/>
				<path id="_x39_2101" class="st19" d="M888.2,354.1l-25.7,43.2l9.3,73l118.2,40.4l29.5-22.8l14.4-98.6l-49.3-51.9L888.2,354.1z"
					/>
				<path id="_x39_2058" class="st20" d="M787.8,343.1l-38.1-27.7l-66.9,14.2l-20.2,65.6l29.5,33.6l66.4,1.9l35.8-48.8L787.8,343.1z
					"/>
				<path id="_x39_2054" class="st21" d="M1144.4,415.8l-13.1-24.4l-97.3-2.2l-14.4,98.6l81.2,7.9L1144.4,415.8z"/>
				<path id="_x39_2104" class="st22" d="M755.7,573.5l50.1-77.5l-47.4-65.3l-66.4-1.9l-44.1,69.9l31.4,65.3L755.7,573.5z"/>
				<path id="_x39_2250" class="st23" d="M907.2,1178h128.5l43.8-78.3l0.3-34.4l-101.9-62.5l-90.7,47.8L907.2,1178z"/>
				<path id="_x39_2123" class="st22" d="M1001.1,226.1H858.8l-4.5,91l33.9,36.9l96.4-16.7L1001.1,226.1z"/>
				<path id="_x39_2154" class="st24" d="M907.2,1178l-19.9-127.5l-25.7-9.8l-91.3,46.9l6.5,90.3H907.2z"/>
				<path id="_x39_2115" class="st13" d="M981.7,928.3l-44.4-43.7l-80.6,4.6l-39.9,58.1l44.7,93.5l25.7,9.8l90.7-47.8L981.7,928.3z"
					/>
				<path id="_x39_1941" class="st25" d="M32.8,993.9v74.4l118.6,22.2l9.2-7.1l17.1-55.8l-33.7-63L32.8,993.9z"/>
				<path id="_x39_1932" class="st26" d="M1079.8,1065.3l-0.3,34.4l50.3,78.3h81.8l37.6-60.3l-8.8-62.8l-37.6-28.8l-62.4-5
					L1079.8,1065.3z"/>
				<path id="_x39_2025" class="st27" d="M1144.4,415.8l-43.6,79.9l45.4,60.6l80.7-17.8l-2.4-109.3L1144.4,415.8z"/>
				<path id="_x39_2111" class="st28" d="M615.6,775.6l56.7-29l22.3-67.4l-52-55.7l-79.6,25.2L549.5,729L615.6,775.6z"/>
				<path id="_x39_1906" class="st29" d="M861.5,1040.8l-44.7-93.5l-57.3,0.4L715.6,993l5.4,67.6l49.2,27.2L861.5,1040.8z"/>
				<path id="_x39_1942" class="st27" d="M856.7,889.2l-61.5-77l-60,9.8l-6.8,7.9l-13.8,68.8l44.8,49l57.3-0.4L856.7,889.2z"/>
				<path id="_x39_2139" class="st30" d="M264.2,1178h113l21.2-104.8l-37.8-41.2l-80.7-3.3l-35.8,78.7L264.2,1178z"/>
				<path id="_x39_2078" class="st31" d="M32.8,993.9L144,964.5l6.1-27.7l-15-22.1l-102.4-4.4V993.9z"/>
				<path id="_x39_2027" class="st20" d="M1366.8,541.2l-118.4,18.9l-6.5,30.3l41.4,66.3l83.4-2V541.2z"/>
				<path id="_x39_2106" class="st32" d="M1151.3,226.1l31,99l18.5,3.2l66.8-55.1l-6.4-47.1H1151.3z"/>
				<path id="_x39_1977" class="st33" d="M537.5,1006.6l-71.9-90.1l-81.1,18.8l-23.8,96.8l37.8,41.2l89.9-0.9L537.5,1006.6z"/>
				<path id="_x39_2071" class="st34" d="M32.8,721.1l94.1,3.9l32-66.2L131.3,615L32.8,622V721.1z"/>
				<path id="_x39_2126" class="st35" d="M238.3,914.6l-88.1,22.2l-6.1,27.7l33.7,63l96.7-5l-1-78L238.3,914.6z"/>
				<path id="_x39_2121" class="st36" d="M1144.4,415.8l80.1,13.4l18.5-17.5l-42.3-83.4l-18.5-3.2l-51,66.4L1144.4,415.8z"/>
				<path id="_x39_2040" class="st20" d="M1240.7,722l-76.3-17.4l-40.9,31.1l28.4,97.7l68.9-3.2l24.7-97L1240.7,722z"/>
				<path id="_x39_2110" class="st34" d="M1139.8,605.1l-94.5,32.2l5.2,73.8l72.9,24.7l40.9-31.1l-14.8-91.4L1139.8,605.1z"/>
				<path id="_x39_2117" class="st25" d="M1243,411.7l39.2-3.9l62.5-69.3l-23.3-43.6l-53.9-21.7l-66.8,55.1L1243,411.7z"/>
				<path id="_x39_2145" class="st37" d="M981.7,928.3l40.4-39.5l-45.7-40.2l-39.1,36L981.7,928.3z"/>
				<path id="_x39_2283" class="st38" d="M563.1,648.6l-18.7-26.2l-64.2-20.4l-40.9,25.3l-19.8,85l10.8,19.3l95.6,14.6l23.6-17.4
					L563.1,648.6z"/>
				<path id="_x39_2026" class="st39" d="M273.5,944.6l1,78l5.5,6.2l80.7,3.3l23.8-96.8l-28.2-24.4L273.5,944.6z"/>
				<path id="_x39_2028" class="st40" d="M238.3,914.6l8.8-72.1l-11.5-12.6l-90.2,8l-10.3,76.9l15,22.1L238.3,914.6z"/>
				<path id="_x39_2108" class="st41" d="M32.8,820.3l96.8-2.3l16.9-62.2L126.9,725l-94.1-3.9V820.3z"/>
				<path id="_x39_2019" class="st42" d="M525.9,746.4l-95.6-14.6l-14,87.7l57.7,35.9l63.6-53.6L525.9,746.4z"/>
				<path id="_x39_2055" class="st43" d="M667.8,849l15.6,52.4l31.2-2.6l13.8-68.8L667.8,849z"/>
				<path id="_x39_2084" class="st35" d="M569.5,534.9l32.6-42.5l-17.5-50.8l-91.2-13.3l-25.1,50l27.5,50.9L569.5,534.9z"/>
				<path id="_x39_2056" class="st42" d="M141.8,534.4l-109-30.7V622l98.5-7.1L141.8,534.4z"/>
				<path id="_x39_2081" class="st44" d="M301.2,226.1H180.3l18.4,99.1l40.7,11.9l55.1-23.1L301.2,226.1z"/>
				<path id="_x39_2061" class="st20" d="M672,1079l-24.2,99h129l-6.5-90.3l-49.2-27.2L672,1079z"/>
				<path id="_x39_2274" class="st45" d="M465.6,916.5l8.5-61.1l-57.7-35.9l-64.4,47.7l4.4,43.8l28.2,24.4L465.6,916.5z"/>
				<path id="_x39_2103" class="st46" d="M1366.8,786l-48.2-1.2l-83.7,53.1l39.2,91.5l92.7-3.2V786z"/>
				<path id="_x39_2083" class="st47" d="M1240.7,722l42.7-65.2l-41.4-66.3l-92.4,22.7l14.8,91.4L1240.7,722z"/>
				<path id="_x39_1913" class="st48" d="M667.8,849l60.6-19.1l6.8-7.9l-2.7-40.7l-60.2-34.7l-56.7,29l-5.6,21L667.8,849z"/>
				<path id="_x39_2064" class="st49" d="M218.7,757.1L246,690l-87.1-31.2l-32,66.2l19.6,30.7L218.7,757.1z"/>
				<path id="_x39_2124" class="st45" d="M145.4,837.8L129.6,818l-96.8,2.3v90.1l102.4,4.4L145.4,837.8z"/>
				<path id="_x39_2069" class="st50" d="M805.8,496l66.1-25.7l-9.3-73L794.2,382l-35.8,48.8L805.8,496z"/>
				<path id="_x39_2029" class="st51" d="M145.4,837.8l90.2-8l-16.9-72.8l-72.3-1.4L129.6,818L145.4,837.8z"/>
				<path id="_x39_2120" class="st35" d="M755.7,573.5l-76.4-9.6l-34.7,36.5l-1.9,23l52,55.7l47.6-4.1l25.2-19L755.7,573.5z"/>
				<path id="_x39_2116" class="st52" d="M1366.8,1049.9l-44.7-30.7l-35.3-2.7l-46.5,38.4l8.8,62.8l57,30.7l60.7-24.6V1049.9z"/>
				<path id="_x39_1902" class="st53" d="M377.2,1178h138.6l-27.6-105.7l-89.9,0.9L377.2,1178z"/>
				<path id="_x39_2119" class="st35" d="M757.6,226.1l-7.9,89.3l38.1,27.7l66.6-26l4.5-91H757.6z"/>
				<path id="_x39_2004" class="st54" d="M1035.6,1178h94.1l-50.3-78.3L1035.6,1178z"/>
				<path id="_x39_2057" class="st55" d="M672,1079l49-18.4l-5.4-67.6l-57.5-22.6l-46.5,35.1L672,1079z"/>
				<path id="_x39_1978" class="st56" d="M1366.8,654.8l-83.4,2l-42.7,65.2l4.8,11.2l73.1,51.6l48.2,1.2V654.8z"/>
				<path id="_x39_1915" class="st57" d="M32.8,1068.3V1178h109.1l9.5-87.6L32.8,1068.3z"/>
				<path id="_x39_1935" class="st48" d="M1322,1019.2l44.7-30v-63l-92.7,3.2l-18.3,33.3l30.9,53.8L1322,1019.2z"/>
				<path id="_x39_2107" class="st48" d="M310.4,423.9l-67.8-9.7l-24.9,16.3l-5.4,50.6l100.8,30.4l19-27.7L310.4,423.9z"/>
				<path id="_x39_2037" class="st58" d="M1366.8,989.2l-44.7,30l44.7,30.7V989.2z"/>
				<path id="_x39_2082" class="st45" d="M757.6,226.1H639.6l43.1,103.5l66.9-14.2L757.6,226.1z"/>
				<path id="_x39_2008" class="st59" d="M692,428.8l-29.5-33.6l-78,46.5l17.5,50.8l45.8,6.2L692,428.8z"/>
				<path id="_x39_2024" class="st60" d="M1139.8,605.1l9.7,8l92.4-22.7l6.5-30.3l-21.5-21.7l-80.7,17.8L1139.8,605.1z"/>
				<path id="_x39_2065" class="st61" d="M679.3,563.9l-31.4-65.3l-45.8-6.2l-32.6,42.5l10.3,35.3l64.8,30.2L679.3,563.9z"/>
				<path id="_x39_2086" class="st62" d="M1366.8,341.3l-22.1-2.8l-62.5,69.3l84.5,41.8V341.3z"/>
				<path id="_x39_2129" class="st49" d="M1366.8,1178v-54.2l-60.7,24.6l-0.3,29.6H1366.8z"/>
				<path id="_x39_2122" class="st63" d="M244.2,1107.5l35.8-78.7l-5.5-6.2l-96.7,5l-17.1,55.8L244.2,1107.5z"/>
				<path id="_x39_2010" class="st63" d="M759.5,947.8l-44.8-49l-31.2,2.6l-25.3,69l57.5,22.6L759.5,947.8z"/>
				<path id="_x39_2131" class="st64" d="M1286.8,1016.5l-30.9-53.8l-49.2,21.8l-4,41.7l37.6,28.8L1286.8,1016.5z"/>
				<path id="_x39_2118" class="st19" d="M198.6,325.2l-18.4-99.1H32.8v148.1l132.1-7.4L198.6,325.2z"/>
				<path id="_x39_2127" class="st63" d="M264.2,1178l-20-70.6l-83.5-24.1l-9.2,7.1l-9.5,87.6H264.2z"/>
				<path id="_x39_2109" class="st31" d="M888.2,354.1l-33.9-36.9l-66.6,26l6.4,38.9l68.4,15.3L888.2,354.1z"/>
				<path id="_x39_2003" class="st65" d="M732.5,781.3l27.3-18.1L742.3,675l-47.6,4.1l-22.3,67.4L732.5,781.3z"/>
				<path id="_x39_2036" class="st66" d="M238.3,914.6l35.2,30l82.9-33.6l-4.4-43.8l-104.8-24.7L238.3,914.6z"/>
				<path id="_x39_2128" class="st63" d="M1211.5,1178h94.2l0.3-29.6l-57-30.7L1211.5,1178z"/>
				<path id="_x39_2075" class="st67" d="M1318.6,784.8l-73.1-51.6l-24.7,97l14.2,7.6L1318.6,784.8z"/>
				<path id="_x39_1916" class="st57" d="M239.3,337l3.3,77.1l67.8,9.7l29.4-66.5l-45.3-43.4L239.3,337z"/>
				<path id="_x39_2007" class="st68" d="M1366.8,226.1h-105.7l6.4,47.1l53.9,21.7l45.3-30.7V226.1z"/>
				<path id="_x39_2011" class="st69" d="M1016.4,626.7l-40.3,62.8l34.9,33l39.6-11.5l-5.2-73.8L1016.4,626.7z"/>
				<path id="_x39_2130" class="st70" d="M732.5,781.3l2.7,40.7l60-9.8l2-39.5l-37.3-9.6L732.5,781.3z"/>
				<path id="_x39_1901" class="st59" d="M797.1,772.8l46.8-56.2L767.4,656l-25.2,19l17.6,88.2L797.1,772.8z"/>
				<path id="_x39_2014" class="st37" d="M239.3,337l-40.7-11.9l-33.8,41.7l52.8,63.6l24.9-16.3L239.3,337z"/>
				<path id="_x39_2009" class="st71" d="M642.7,623.4l1.9-23l-64.8-30.2l-35.4,52.3l18.7,26.2L642.7,623.4z"/>
				<path id="_x39_1914" class="st72" d="M615.6,775.6L549.5,729l-23.6,17.4l11.8,55.4l72.3-5.2L615.6,775.6z"/>
				<path id="_x39_2067" class="st70" d="M1366.8,341.3v-77.1l-45.3,30.7l23.3,43.6L1366.8,341.3z"/>
				<path id="_x39_2136" class="st73" d="M569.5,534.9l-73.8-5.6l-15.6,72.8l64.2,20.4l35.4-52.3L569.5,534.9z"/>
				<path id="_x39_2134" class="st50" d="M439.2,627.5l-104.4-27.6l-30.3,62.4l114.9,50.1L439.2,627.5z"/>
				<path id="_x39_2140" class="st43" d="M1140.3,1021.2l62.4,5l4-41.7l-51.4-8.9L1140.3,1021.2z"/>
				<path id="_x39_2135" class="st74" d="M1010.9,722.6l-34.9-33l-35.1,24.2l38.3,38L1010.9,722.6z"/>
				<path class="st75" d="M32.8,226.1v952h1334v-952H32.8z"/>
			</g>
		</g>
	</g>
	<text transform="matrix(1 0 0 1 811.4106 619.8387)" class="st76 st77 st78">Westmorland</text>
	<text transform="matrix(1 0 0 1 486.9516 361.849)" class="st76 st77 st78">Brawley</text>
	<text transform="matrix(1 0 0 1 280.3183 789.8466)" class="st76 st77 st78">El Centro</text>
	<text transform="matrix(1 0 0 1 843.1752 818.6835)" class="st76 st77 st78">Calipatria</text>
	<text transform="matrix(1 0 0 1 48.8853 1223.7604)" class="st79 st77 st80">Source:</text>
	<text transform="matrix(1 0 0 1 140.025 1223.3044)" class="st79 st77 st80">CalEnviroScreen 4.0</text>
</g>
<g id="Layer_2">
	<g id="header-svg">
		<text transform="matrix(1 0 0 1 46.9785 87.8232)" class="st81 st82">Out of breath  </text>
		<text transform="matrix(1 0 0 1 49.9175 155.0702)" class="st83"><tspan x="0" y="0" class="st84 st77 st85">Imperial County border communities of Westmorland, Brawley, El Centro and </tspan><tspan x="0" y="37.3" class="st84 st77 st85">Calipatria face some of the greatest rates of asthma in the region.  </tspan></text>
	</g>
</g>
</svg>
